<?xml version="1.0" encoding="utf-8"?>
<!-- Generator: Adobe Illustrator 22.1.0, SVG Export Plug-In . SVG Version: 6.00 Build 0)  -->
<svg version="1.1" id="Layer_1" xmlns="http://www.w3.org/2000/svg" xmlns:xlink="http://www.w3.org/1999/xlink" x="0px" y="0px"
	 viewBox="0 0 211.9 620.6" style="enable-background:new 0 0 211.9 620.6;" xml:space="preserve">
<style type="text/css">
	.st0{fill:none;stroke:#F0F0F0;stroke-width:3;stroke-linecap:round;stroke-linejoin:round;stroke-miterlimit:10;}
</style>
<path class="st0" d="M125.2,76.2l0.8,12.8c0.2,3.5,2.3,6.7,5.4,8.3l53.5,27.7c3,1.5,5.4,4,6.8,7.1l6.3,13.7
	c1.5,3.2,1.8,6.8,0.8,10.2l-2.5,9.4c-0.2,0.9-0.4,1.8-0.3,2.8l0.6,37.9c0,1,0.2,2,0.5,3l1.5,4.4c3.8,11.4,6.1,23.2,6.8,35.1
	l3.2,52.7c1,3.5,1.1,7,0,10.5l1.9,27.8c0,0.6,0,1.1-0.2,1.7l-3.6,13.3c-0.2,0.8-0.6,1.5-1.2,2.1l-5.6,6c-0.6,0.6-1.3,1.1-2.1,1.3
	l-11.7,3.8c-1.4,0.5-2.9-0.6-2.9-2.1l0,0c0-0.8,0.4-1.5,1.1-1.9l9-5.4c0.6-0.4,1.1-0.9,1.6-1.5l3.1-4.5c0.5-0.8,0.8-1.7,0.9-2.7
	l0.4-16.1c0-1.1-0.6-2.1-1.6-2.6l0,0c-1.3-0.7-3-0.2-3.7,1.1L183,347.2c-0.9,1.3-2.6,1.7-4,0.9l0,0c-1.2-0.7-1.8-2.2-1.3-3.6
	l8.8-25.1c0.4-1.1,0.9-2.1,1.6-2.9l4.6-5.8c0.9-1.1,1.1-2.7,0.6-4L170.6,250c-2.9-7.2-3.6-15-2.2-22.6l1.4-7
	c0.3-1.7,0.2-3.5-0.4-5.2l-5.1-14.6c-0.8-2.2-1.1-4.5-1.1-6.8l0.3-25.3"/>
<path class="st0" d="M172.8,158l-12.3,13.7c-3.6,4-9.1,5.8-14.4,4.6l-30.6-6.8"/>
<path class="st0" d="M130.7,613c0.2,0.5,0.3,1.1,0.3,1.7c0,0.8-0.1,1.5-0.2,2.1c0.4,1.1,1.4,1.9,3.7,1.9c3.6,0,4-1.8,4-4
	c0-1.2-0.4-2.3-1.2-3.1"/>
<path class="st0" d="M145.1,612c0.6,0.7,0.9,1.6,0.9,2.7c0,2.1-0.4,3.8-3.8,3.8c-3.4,0-3.8-1.7-3.8-3.8"/>
<path class="st0" d="M164.3,200.5l-8.2,39.5c-0.3,1.5-0.3,3,0.1,4.4l1.7,7c0.4,1.6,0.4,3.3,0,4.9l-1.7,6.5c-0.5,2-0.4,4.1,0.3,6
	l4.3,11.9c3.1,8.6,4.6,17.7,4.2,26.8l-3.1,78c-0.3,8.5-2,16.9-5,24.9l-5.1,13.6c-0.6,1.6-0.9,3.2-1,4.9l-0.6,21.6
	c0,1.3-0.2,2.6-0.6,3.9l-1.8,5.9c-0.7,2.2-0.8,4.6-0.4,6.9l3.4,19.7c0.9,4.9,0.8,9.8-0.2,14.7l-13.9,69.9c-0.2,1.1-0.3,2.2-0.3,3.3
	l0.3,13c0.1,3.1,1.1,6.2,3.1,8.7l12.8,16.3l-0.1-0.1c0.6,0.6,0.9,1.5,0.9,2.4c0,1.9-0.4,3.4-3.6,3.4s-3.8-1.6-3.8-3.4"/>
<path class="st0" d="M122.7,612.6c0.2,0.5,0.2,1.1,0.2,1.7c0,0.9-0.1,1.8-0.3,2.5c0.4,1.2,1.5,2.1,4,2.1c3.9,0,4.3-1.9,4.3-4.3
	c0-1.3-0.4-2.5-1.3-3.3"/>
<path class="st0" d="M119.4,458.4c3.5,6.1,12.8,6.3,17.5,1.4"/>
<path class="st0" d="M106,87.5c-14.2,0-21-11.8-24.6-23.5c-1.7,2-4.7,1.2-8.4-11.2C69.5,41.3,74.1,37,77,40.5l0,0
	c-2.1-21.7,6.6-39,28.9-39s31,17.3,28.9,39l0,0c2.9-3.5,7.5,0.8,4.1,12.2c-3.7,12.4-6.7,13.2-8.4,11.2C127,75.7,120.1,87.5,106,87.5
	z"/>
<path class="st0" d="M86.7,76.2L86,89c-0.2,3.5-2.3,6.7-5.4,8.3L27.1,125c-3,1.5-5.4,4-6.8,7.1L14,145.7c-1.5,3.2-1.8,6.8-0.8,10.2
	l2.5,9.4c0.2,0.9,0.4,1.8,0.3,2.8L15.5,206c0,1-0.2,2-0.5,3l-1.5,4.4c-3.8,11.4-6.1,23.2-6.8,35.1l-3.2,52.7c-1,3.5-1.1,7,0,10.5
	l-1.9,27.8c0,0.6,0,1.1,0.2,1.7l3.6,13.3c0.2,0.8,0.6,1.5,1.2,2.1l5.6,6c0.6,0.6,1.3,1.1,2.1,1.3l11.7,3.8c1.4,0.5,2.9-0.6,2.9-2.1
	l0,0c0-0.8-0.4-1.5-1.1-1.9l-9-5.4c-0.6-0.4-1.1-0.9-1.6-1.5l-3.1-4.5c-0.5-0.8-0.8-1.7-0.9-2.7l-0.4-16.1c0-1.1,0.6-2.1,1.6-2.6h0
	c1.3-0.7,3-0.2,3.7,1.1l10.7,15.3c0.9,1.3,2.6,1.7,4,0.9h0c1.2-0.7,1.8-2.2,1.3-3.6l-8.8-25.1c-0.4-1.1-0.9-2.1-1.6-2.9l-4.6-5.8
	c-0.9-1.1-1.1-2.7-0.6-4L41.4,250c2.9-7.2,3.6-15,2.2-22.6l-1.4-7c-0.3-1.7-0.2-3.5,0.4-5.2l5.1-14.6c0.8-2.2,1.1-4.5,1.1-6.8
	l-0.3-25.3"/>
<path class="st0" d="M39.1,158l12.3,13.7c3.6,4,9.1,5.8,14.4,4.6l30.6-6.8"/>
<path class="st0" d="M81.2,613c-0.2,0.5-0.3,1.1-0.3,1.7c0,0.8,0.1,1.5,0.2,2.1c-0.4,1.1-1.4,1.9-3.7,1.9c-3.6,0-4-1.8-4-4
	c0-1.2,0.4-2.3,1.2-3.1"/>
<path class="st0" d="M66.8,612c-0.6,0.7-0.9,1.6-0.9,2.7c0,2.1,0.4,3.8,3.8,3.8c3.4,0,3.8-1.7,3.8-3.8"/>
<path class="st0" d="M47.6,200.5l8.2,39.5c0.3,1.5,0.3,3-0.1,4.4l-1.7,7c-0.4,1.6-0.4,3.3,0,4.9l1.7,6.5c0.5,2,0.4,4.1-0.3,6
	l-4.3,11.9c-3.1,8.6-4.6,17.7-4.2,26.8l3.1,78c0.3,8.5,2,16.9,5,24.9l5.1,13.6c0.6,1.6,0.9,3.2,1,4.9l0.6,21.6
	c0,1.3,0.2,2.6,0.6,3.9l1.8,5.9c0.7,2.2,0.8,4.6,0.4,6.9l-3.4,19.7c-0.9,4.9-0.8,9.8,0.2,14.7l13.9,69.9c0.2,1.1,0.3,2.2,0.3,3.3
	l-0.3,13c-0.1,3.1-1.1,6.2-3.1,8.7l-12.8,16.3l0.1-0.1c-0.6,0.6-0.9,1.5-0.9,2.4c0,1.9,0.4,3.4,3.6,3.4c3.3,0,3.8-1.6,3.8-3.4"/>
<path class="st0" d="M89.2,612.6c-0.2,0.5-0.2,1.1-0.2,1.7c0,0.9,0.1,1.8,0.3,2.5c-0.4,1.2-1.5,2.1-4,2.1c-3.9,0-4.3-1.9-4.3-4.3
	c0-1.3,0.4-2.5,1.3-3.3"/>
<path class="st0" d="M90.2,610.8c-0.9,0.9-1.3,2.1-1.3,3.5c0,2.6,1.5,4.8,5.7,4.8c0.8,0,1.9,0,3,0c1.8,0,3.5-1.1,4.3-2.7l0.8-1.6
	c0.7-1.3,1-2.8,0.9-4.3l-0.8-12.4c0-1.9-0.3-3.7-0.8-5.5L99.1,582c-0.4-1.2-0.5-2.5-0.3-3.8c0.2-1.8-0.1-3.5-0.8-5.3
	c-0.5-1.2-0.8-2.5-0.8-3.9l0.6-32.3c0-1.9,0.3-3.8,0.9-5.6l2.9-9.3c0.9-2.9,1.1-6,0.7-9l-5.2-33.4c-0.6-3.9,0-7.9,1.6-11.5l2.4-5.1
	c1.2-2.6,1.9-5.5,1.9-8.4v-31.6l-1.4-19.7l4.4-87.2l4.4,87.2l-1.4,19.7v31.6c0,2.9,0.6,5.8,1.9,8.4l2.4,5.1
	c1.7,3.6,2.2,7.6,1.6,11.5l-5.2,33.4c-0.5,3-0.2,6.1,0.7,9l2.9,9.3c0.6,1.8,0.9,3.7,0.9,5.6l0.6,32.3c0,1.3-0.3,2.6-0.8,3.9
	c-0.8,1.8-1.1,3.5-0.8,5.3c0.2,1.3,0,2.6-0.3,3.8l-3.1,10.6c-0.5,1.8-0.8,3.7-0.8,5.5l-0.8,12.4c-0.1,1.5,0.2,2.9,0.9,4.3l0.8,1.6
	c0.8,1.6,2.5,2.6,4.3,2.7c1.1,0,2.2,0,3,0c4.3,0,5.8-2.1,5.7-4.8c0-1.4-0.4-2.6-1.3-3.5"/>
<path class="st0" d="M92.5,458.4c-3.5,6.1-12.8,6.3-17.5,1.4"/>
<path class="st0" d="M77,304.9l23.2,9.7c3.7,1.6,7.9,1.6,11.6,0l23.2-9.7"/>
</svg>
